{
	"patcher" : 	{
		"fileversion" : 1,
		"appversion" : 		{
			"major" : 8,
			"minor" : 5,
			"revision" : 5,
			"architecture" : "x64",
			"modernui" : 1
		}
,
		"classnamespace" : "box",
		"rect" : [ 56.0, 110.0, 928.0, 826.0 ],
		"bglocked" : 0,
		"openinpresentation" : 1,
		"default_fontsize" : 12.0,
		"default_fontface" : 0,
		"default_fontname" : "Arial",
		"gridonopen" : 1,
		"gridsize" : [ 15.0, 15.0 ],
		"gridsnaponopen" : 1,
		"objectsnaponopen" : 1,
		"statusbarvisible" : 2,
		"toolbarvisible" : 1,
		"lefttoolbarpinned" : 0,
		"toptoolbarpinned" : 0,
		"righttoolbarpinned" : 0,
		"bottomtoolbarpinned" : 0,
		"toolbars_unpinned_last_save" : 0,
		"tallnewobj" : 0,
		"boxanimatetime" : 200,
		"enablehscroll" : 1,
		"enablevscroll" : 1,
		"devicewidth" : 0.0,
		"description" : "",
		"digest" : "",
		"tags" : "",
		"style" : "",
		"subpatcher_template" : "",
		"assistshowspatchername" : 0,
		"boxes" : [ 			{
				"box" : 				{
					"id" : "obj-13",
					"maxclass" : "number",
					"numinlets" : 1,
					"numoutlets" : 2,
					"outlettype" : [ "", "bang" ],
					"parameter_enable" : 1,
					"patching_rect" : [ 163.5, 386.0, 50.0, 22.0 ],
					"saved_attribute_attributes" : 					{
						"valueof" : 						{
							"parameter_initial" : [ 16 ],
							"parameter_initial_enable" : 1,
							"parameter_invisible" : 1,
							"parameter_longname" : "number",
							"parameter_shortname" : "number",
							"parameter_type" : 3
						}

					}
,
					"varname" : "number"
				}

			}
, 			{
				"box" : 				{
					"id" : "obj-11",
					"maxclass" : "newobj",
					"numinlets" : 1,
					"numoutlets" : 1,
					"outlettype" : [ "" ],
					"patching_rect" : [ 51.499999999999773, 34.0, 70.0, 22.0 ],
					"text" : "loadmess 1"
				}

			}
, 			{
				"box" : 				{
					"id" : "obj-10",
					"maxclass" : "newobj",
					"numinlets" : 2,
					"numoutlets" : 1,
					"outlettype" : [ "" ],
					"patching_rect" : [ 98.85033581283551, 118.0, 52.0, 22.0 ],
					"text" : "gate 1 1"
				}

			}
, 			{
				"box" : 				{
					"id" : "obj-3",
					"maxclass" : "toggle",
					"numinlets" : 1,
					"numoutlets" : 1,
					"outlettype" : [ "int" ],
					"parameter_enable" : 0,
					"patching_rect" : [ 54.045525812835649, 66.0, 24.0, 24.0 ],
					"presentation" : 1,
					"presentation_rect" : [ 18.045525812835649, 13.653846442699432, 24.0, 24.0 ]
				}

			}
, 			{
				"box" : 				{
					"comment" : "",
					"id" : "obj-1",
					"index" : 0,
					"maxclass" : "inlet",
					"numinlets" : 0,
					"numoutlets" : 1,
					"outlettype" : [ "" ],
					"patching_rect" : [ 131.85033581283551, 34.0, 30.0, 30.0 ]
				}

			}
, 			{
				"box" : 				{
					"comment" : "density in notes per second",
					"id" : "obj-9",
					"index" : 0,
					"maxclass" : "outlet",
					"numinlets" : 1,
					"numoutlets" : 0,
					"patching_rect" : [ 94.85033581283551, 461.653879821300507, 30.0, 30.0 ]
				}

			}
, 			{
				"box" : 				{
					"comment" : "density normalized to 0...1",
					"id" : "obj-7",
					"index" : 0,
					"maxclass" : "outlet",
					"numinlets" : 1,
					"numoutlets" : 0,
					"patching_rect" : [ 146.85033581283551, 461.653879821300507, 30.0, 30.0 ]
				}

			}
, 			{
				"box" : 				{
					"id" : "obj-5",
					"maxclass" : "newobj",
					"numinlets" : 2,
					"numoutlets" : 1,
					"outlettype" : [ "float" ],
					"patching_rect" : [ 146.85033581283551, 426.076816320419312, 32.0, 22.0 ],
					"text" : "/ 16."
				}

			}
, 			{
				"box" : 				{
					"id" : "obj-42",
					"linecount" : 2,
					"maxclass" : "comment",
					"numinlets" : 1,
					"numoutlets" : 0,
					"patching_rect" : [ 215.5, 380.5, 164.0, 33.0 ],
					"text" : "adjust maximum note density ( notes per second) here"
				}

			}
, 			{
				"box" : 				{
					"id" : "obj-404",
					"maxclass" : "newobj",
					"numinlets" : 1,
					"numoutlets" : 1,
					"outlettype" : [ "" ],
					"patcher" : 					{
						"fileversion" : 1,
						"appversion" : 						{
							"major" : 8,
							"minor" : 5,
							"revision" : 5,
							"architecture" : "x64",
							"modernui" : 1
						}
,
						"classnamespace" : "box",
						"rect" : [ 800.0, 100.0, 640.0, 795.0 ],
						"bglocked" : 0,
						"openinpresentation" : 0,
						"default_fontsize" : 12.0,
						"default_fontface" : 0,
						"default_fontname" : "Arial",
						"gridonopen" : 1,
						"gridsize" : [ 15.0, 15.0 ],
						"gridsnaponopen" : 1,
						"objectsnaponopen" : 1,
						"statusbarvisible" : 2,
						"toolbarvisible" : 1,
						"lefttoolbarpinned" : 0,
						"toptoolbarpinned" : 0,
						"righttoolbarpinned" : 0,
						"bottomtoolbarpinned" : 0,
						"toolbars_unpinned_last_save" : 0,
						"tallnewobj" : 0,
						"boxanimatetime" : 200,
						"enablehscroll" : 1,
						"enablevscroll" : 1,
						"devicewidth" : 0.0,
						"description" : "",
						"digest" : "",
						"tags" : "",
						"style" : "",
						"subpatcher_template" : "",
						"assistshowspatchername" : 0,
						"boxes" : [ 							{
								"box" : 								{
									"format" : 6,
									"id" : "obj-17",
									"maxclass" : "flonum",
									"numinlets" : 1,
									"numoutlets" : 2,
									"outlettype" : [ "", "bang" ],
									"parameter_enable" : 0,
									"patching_rect" : [ 102.678822470245223, 784.0, 50.0, 22.0 ]
								}

							}
, 							{
								"box" : 								{
									"id" : "obj-16",
									"maxclass" : "newobj",
									"numinlets" : 2,
									"numoutlets" : 1,
									"outlettype" : [ "float" ],
									"patching_rect" : [ 102.678822470245223, 740.0, 49.0, 22.0 ],
									"text" : "!/ 1000."
								}

							}
, 							{
								"box" : 								{
									"format" : 6,
									"id" : "obj-15",
									"maxclass" : "flonum",
									"numinlets" : 1,
									"numoutlets" : 2,
									"outlettype" : [ "", "bang" ],
									"parameter_enable" : 0,
									"patching_rect" : [ 102.678822470245223, 700.0, 50.0, 22.0 ]
								}

							}
, 							{
								"box" : 								{
									"id" : "obj-11",
									"maxclass" : "comment",
									"numinlets" : 1,
									"numoutlets" : 0,
									"patching_rect" : [ 222.170282793578963, 634.932829797267914, 150.0, 20.0 ],
									"text" : "average note step"
								}

							}
, 							{
								"box" : 								{
									"id" : "obj-10",
									"maxclass" : "comment",
									"numinlets" : 1,
									"numoutlets" : 0,
									"patching_rect" : [ 27.207214999999906, 537.732827544212341, 150.0, 20.0 ],
									"text" : "average note step"
								}

							}
, 							{
								"box" : 								{
									"id" : "obj-4",
									"maxclass" : "comment",
									"numinlets" : 1,
									"numoutlets" : 0,
									"patching_rect" : [ 211.0, 430.0, 165.0, 20.0 ],
									"text" : "list of last 5 note steps in ms"
								}

							}
, 							{
								"box" : 								{
									"id" : "obj-9",
									"linecount" : 2,
									"maxclass" : "comment",
									"numinlets" : 1,
									"numoutlets" : 0,
									"patching_rect" : [ 456.0, 845.0, 150.0, 33.0 ],
									"text" : "woher kommen diese peaks??"
								}

							}
, 							{
								"box" : 								{
									"id" : "obj-7",
									"maxclass" : "multislider",
									"numinlets" : 1,
									"numoutlets" : 2,
									"outlettype" : [ "", "" ],
									"parameter_enable" : 0,
									"patching_rect" : [ 258.0, 845.0, 182.0, 126.0 ],
									"setminmax" : [ 0.0, 1.0 ],
									"setstyle" : 3
								}

							}
, 							{
								"box" : 								{
									"id" : "obj-6",
									"maxclass" : "newobj",
									"numinlets" : 5,
									"numoutlets" : 1,
									"outlettype" : [ "" ],
									"patching_rect" : [ 187.0, 796.0, 91.0, 22.0 ],
									"text" : "zmap 0 100 0 1"
								}

							}
, 							{
								"box" : 								{
									"format" : 6,
									"id" : "obj-5",
									"maxclass" : "flonum",
									"numinlets" : 1,
									"numoutlets" : 2,
									"outlettype" : [ "", "bang" ],
									"parameter_enable" : 0,
									"patching_rect" : [ 307.0, 796.0, 50.0, 22.0 ]
								}

							}
, 							{
								"box" : 								{
									"id" : "obj-3",
									"maxclass" : "newobj",
									"numinlets" : 2,
									"numoutlets" : 1,
									"outlettype" : [ "float" ],
									"patching_rect" : [ 187.0, 732.0, 29.5, 22.0 ],
									"text" : "!/ 1."
								}

							}
, 							{
								"box" : 								{
									"id" : "obj-1",
									"maxclass" : "newobj",
									"numinlets" : 6,
									"numoutlets" : 1,
									"outlettype" : [ "" ],
									"patching_rect" : [ 187.0, 700.0, 110.0, 22.0 ],
									"text" : "scale 0. 15000 0 1."
								}

							}
, 							{
								"box" : 								{
									"id" : "obj-398",
									"maxclass" : "button",
									"numinlets" : 1,
									"numoutlets" : 1,
									"outlettype" : [ "bang" ],
									"parameter_enable" : 0,
									"patching_rect" : [ 187.071496499118666, 554.932828605175018, 24.0, 24.0 ]
								}

							}
, 							{
								"box" : 								{
									"id" : "obj-389",
									"maxclass" : "newobj",
									"numinlets" : 2,
									"numoutlets" : 1,
									"outlettype" : [ "float" ],
									"patching_rect" : [ 187.071496499118666, 634.932829797267914, 29.5, 22.0 ],
									"text" : "/ 5."
								}

							}
, 							{
								"box" : 								{
									"id" : "obj-387",
									"maxclass" : "message",
									"numinlets" : 2,
									"numoutlets" : 1,
									"outlettype" : [ "" ],
									"patching_rect" : [ 187.071496499118666, 512.071998476982117, 29.5, 22.0 ],
									"text" : "0."
								}

							}
, 							{
								"box" : 								{
									"format" : 6,
									"id" : "obj-384",
									"maxclass" : "flonum",
									"numinlets" : 1,
									"numoutlets" : 2,
									"outlettype" : [ "", "bang" ],
									"parameter_enable" : 0,
									"patching_rect" : [ 271.371497285899977, 554.932828605175018, 71.597571015357971, 22.0 ]
								}

							}
, 							{
								"box" : 								{
									"id" : "obj-381",
									"maxclass" : "newobj",
									"numinlets" : 2,
									"numoutlets" : 1,
									"outlettype" : [ "float" ],
									"patching_rect" : [ 218.571496499118666, 554.932828605175018, 29.5, 22.0 ],
									"text" : "+ 0."
								}

							}
, 							{
								"box" : 								{
									"id" : "obj-380",
									"maxclass" : "newobj",
									"numinlets" : 2,
									"numoutlets" : 1,
									"outlettype" : [ "float" ],
									"patching_rect" : [ 187.071496499118666, 599.986494481563568, 29.5, 22.0 ],
									"text" : "f"
								}

							}
, 							{
								"box" : 								{
									"id" : "obj-379",
									"maxclass" : "newobj",
									"numinlets" : 1,
									"numoutlets" : 2,
									"outlettype" : [ "bang", "" ],
									"patching_rect" : [ 187.071496499118666, 483.732827544212341, 29.5, 22.0 ],
									"text" : "t b l"
								}

							}
, 							{
								"box" : 								{
									"id" : "obj-378",
									"maxclass" : "newobj",
									"numinlets" : 2,
									"numoutlets" : 2,
									"outlettype" : [ "", "" ],
									"patching_rect" : [ 218.571496499118666, 512.071998476982117, 47.0, 22.0 ],
									"text" : "zl iter 1"
								}

							}
, 							{
								"box" : 								{
									"format" : 6,
									"id" : "obj-377",
									"maxclass" : "flonum",
									"numinlets" : 1,
									"numoutlets" : 2,
									"outlettype" : [ "", "bang" ],
									"parameter_enable" : 0,
									"patching_rect" : [ 56.957214999999906, 513.732827544212341, 85.0, 22.0 ]
								}

							}
, 							{
								"box" : 								{
									"id" : "obj-375",
									"maxclass" : "newobj",
									"numinlets" : 2,
									"numoutlets" : 2,
									"outlettype" : [ "", "" ],
									"patching_rect" : [ 56.957214999999906, 483.732827544212341, 60.0, 22.0 ],
									"text" : "zl median"
								}

							}
, 							{
								"box" : 								{
									"id" : "obj-372",
									"maxclass" : "newobj",
									"numinlets" : 1,
									"numoutlets" : 1,
									"outlettype" : [ "" ],
									"patching_rect" : [ 201.804809999999861, 391.613494396209717, 144.0, 22.0 ],
									"text" : "if $f1 >= 0 then $f1 else 0"
								}

							}
, 							{
								"box" : 								{
									"id" : "obj-371",
									"maxclass" : "newobj",
									"numinlets" : 1,
									"numoutlets" : 2,
									"outlettype" : [ "bang", "bang" ],
									"patching_rect" : [ 302.666663646697998, 279.799479484558105, 32.0, 22.0 ],
									"text" : "t b b"
								}

							}
, 							{
								"box" : 								{
									"id" : "obj-365",
									"maxclass" : "newobj",
									"numinlets" : 5,
									"numoutlets" : 1,
									"outlettype" : [ "" ],
									"patching_rect" : [ 102.678822470245223, 425.532812654972076, 103.0, 22.0 ],
									"text" : "join 5 @triggers 4"
								}

							}
, 							{
								"box" : 								{
									"id" : "obj-364",
									"maxclass" : "newobj",
									"numinlets" : 2,
									"numoutlets" : 1,
									"outlettype" : [ "float" ],
									"patching_rect" : [ 201.804809999999861, 364.531156539916992, 29.5, 22.0 ],
									"text" : "!- 0."
								}

							}
, 							{
								"box" : 								{
									"id" : "obj-362",
									"maxclass" : "newobj",
									"numinlets" : 2,
									"numoutlets" : 1,
									"outlettype" : [ "bang" ],
									"patching_rect" : [ 302.611610591411591, 245.799479484558105, 113.0, 22.0 ],
									"text" : "metro 50 @active 1"
								}

							}
, 							{
								"box" : 								{
									"id" : "obj-360",
									"maxclass" : "newobj",
									"numinlets" : 1,
									"numoutlets" : 1,
									"outlettype" : [ "float" ],
									"patching_rect" : [ 242.0, 297.799479484558105, 55.0, 22.0 ],
									"text" : "cpuclock"
								}

							}
, 							{
								"box" : 								{
									"id" : "obj-359",
									"maxclass" : "newobj",
									"numinlets" : 2,
									"numoutlets" : 1,
									"outlettype" : [ "float" ],
									"patching_rect" : [ 50.0, 364.531156539916992, 29.5, 22.0 ],
									"text" : "!- 0."
								}

							}
, 							{
								"box" : 								{
									"id" : "obj-358",
									"maxclass" : "newobj",
									"numinlets" : 2,
									"numoutlets" : 1,
									"outlettype" : [ "float" ],
									"patching_rect" : [ 87.457214999999906, 364.531156539916992, 29.5, 22.0 ],
									"text" : "!- 0."
								}

							}
, 							{
								"box" : 								{
									"id" : "obj-355",
									"maxclass" : "newobj",
									"numinlets" : 2,
									"numoutlets" : 1,
									"outlettype" : [ "float" ],
									"patching_rect" : [ 124.178822470245223, 364.531156539916992, 29.5, 22.0 ],
									"text" : "!- 0."
								}

							}
, 							{
								"box" : 								{
									"id" : "obj-353",
									"maxclass" : "newobj",
									"numinlets" : 2,
									"numoutlets" : 1,
									"outlettype" : [ "float" ],
									"patching_rect" : [ 158.178822470245223, 364.531156539916992, 29.5, 22.0 ],
									"text" : "!- 0."
								}

							}
, 							{
								"box" : 								{
									"id" : "obj-352",
									"maxclass" : "newobj",
									"numinlets" : 1,
									"numoutlets" : 5,
									"outlettype" : [ "float", "float", "float", "float", "float" ],
									"patching_rect" : [ 88.178822470245223, 311.799479484558105, 81.0, 22.0 ],
									"text" : "unpack f f f f f"
								}

							}
, 							{
								"box" : 								{
									"id" : "obj-325",
									"maxclass" : "button",
									"numinlets" : 1,
									"numoutlets" : 1,
									"outlettype" : [ "bang" ],
									"parameter_enable" : 0,
									"patching_rect" : [ 87.457214999999906, 150.799479484558105, 24.0, 24.0 ]
								}

							}
, 							{
								"box" : 								{
									"format" : 6,
									"id" : "obj-323",
									"maxclass" : "flonum",
									"numinlets" : 1,
									"numoutlets" : 2,
									"outlettype" : [ "", "bang" ],
									"parameter_enable" : 0,
									"patching_rect" : [ 88.178822470245223, 226.1328125, 125.376121353301869, 22.0 ]
								}

							}
, 							{
								"box" : 								{
									"id" : "obj-321",
									"maxclass" : "newobj",
									"numinlets" : 1,
									"numoutlets" : 1,
									"outlettype" : [ "float" ],
									"patching_rect" : [ 88.178822470245223, 197.1328125, 55.0, 22.0 ],
									"text" : "cpuclock"
								}

							}
, 							{
								"box" : 								{
									"id" : "obj-117",
									"maxclass" : "number",
									"numinlets" : 1,
									"numoutlets" : 2,
									"outlettype" : [ "", "bang" ],
									"parameter_enable" : 0,
									"patching_rect" : [ 147.928822470245223, 251.1328125, 50.0, 22.0 ]
								}

							}
, 							{
								"box" : 								{
									"id" : "obj-61",
									"maxclass" : "newobj",
									"numinlets" : 2,
									"numoutlets" : 2,
									"outlettype" : [ "", "" ],
									"patching_rect" : [ 88.178822470245223, 280.1328125, 67.0, 22.0 ],
									"text" : "zl stream 5"
								}

							}
, 							{
								"box" : 								{
									"id" : "obj-223",
									"maxclass" : "message",
									"numinlets" : 2,
									"numoutlets" : 1,
									"outlettype" : [ "" ],
									"patching_rect" : [ 100.178822470245223, 251.1328125, 43.0, 22.0 ],
									"text" : "zlclear"
								}

							}
, 							{
								"box" : 								{
									"comment" : "",
									"id" : "obj-402",
									"index" : 1,
									"maxclass" : "inlet",
									"numinlets" : 0,
									"numoutlets" : 1,
									"outlettype" : [ "" ],
									"patching_rect" : [ 87.457214999999906, 47.000000500000056, 30.0, 30.0 ]
								}

							}
, 							{
								"box" : 								{
									"comment" : "",
									"id" : "obj-403",
									"index" : 1,
									"maxclass" : "outlet",
									"numinlets" : 1,
									"numoutlets" : 0,
									"patching_rect" : [ 102.678822470245223, 884.932861499999944, 30.0, 30.0 ]
								}

							}
 ],
						"lines" : [ 							{
								"patchline" : 								{
									"destination" : [ "obj-3", 0 ],
									"source" : [ "obj-1", 0 ]
								}

							}
, 							{
								"patchline" : 								{
									"destination" : [ "obj-61", 1 ],
									"source" : [ "obj-117", 0 ]
								}

							}
, 							{
								"patchline" : 								{
									"destination" : [ "obj-16", 0 ],
									"source" : [ "obj-15", 0 ]
								}

							}
, 							{
								"patchline" : 								{
									"destination" : [ "obj-17", 0 ],
									"source" : [ "obj-16", 0 ]
								}

							}
, 							{
								"patchline" : 								{
									"destination" : [ "obj-403", 0 ],
									"source" : [ "obj-17", 0 ]
								}

							}
, 							{
								"patchline" : 								{
									"destination" : [ "obj-61", 0 ],
									"source" : [ "obj-223", 0 ]
								}

							}
, 							{
								"patchline" : 								{
									"destination" : [ "obj-5", 0 ],
									"order" : 0,
									"source" : [ "obj-3", 0 ]
								}

							}
, 							{
								"patchline" : 								{
									"destination" : [ "obj-6", 0 ],
									"order" : 1,
									"source" : [ "obj-3", 0 ]
								}

							}
, 							{
								"patchline" : 								{
									"destination" : [ "obj-323", 0 ],
									"source" : [ "obj-321", 0 ]
								}

							}
, 							{
								"patchline" : 								{
									"destination" : [ "obj-61", 0 ],
									"source" : [ "obj-323", 0 ]
								}

							}
, 							{
								"patchline" : 								{
									"destination" : [ "obj-321", 0 ],
									"order" : 1,
									"source" : [ "obj-325", 0 ]
								}

							}
, 							{
								"patchline" : 								{
									"destination" : [ "obj-360", 0 ],
									"midpoints" : [ 96.957214999999906, 185.799479484558105, 251.5, 185.799479484558105 ],
									"order" : 0,
									"source" : [ "obj-325", 0 ]
								}

							}
, 							{
								"patchline" : 								{
									"destination" : [ "obj-353", 1 ],
									"order" : 1,
									"source" : [ "obj-352", 4 ]
								}

							}
, 							{
								"patchline" : 								{
									"destination" : [ "obj-353", 0 ],
									"order" : 0,
									"source" : [ "obj-352", 3 ]
								}

							}
, 							{
								"patchline" : 								{
									"destination" : [ "obj-355", 1 ],
									"order" : 1,
									"source" : [ "obj-352", 3 ]
								}

							}
, 							{
								"patchline" : 								{
									"destination" : [ "obj-355", 0 ],
									"order" : 0,
									"source" : [ "obj-352", 2 ]
								}

							}
, 							{
								"patchline" : 								{
									"destination" : [ "obj-358", 1 ],
									"order" : 1,
									"source" : [ "obj-352", 2 ]
								}

							}
, 							{
								"patchline" : 								{
									"destination" : [ "obj-358", 0 ],
									"order" : 0,
									"source" : [ "obj-352", 1 ]
								}

							}
, 							{
								"patchline" : 								{
									"destination" : [ "obj-359", 1 ],
									"order" : 1,
									"source" : [ "obj-352", 1 ]
								}

							}
, 							{
								"patchline" : 								{
									"destination" : [ "obj-359", 0 ],
									"source" : [ "obj-352", 0 ]
								}

							}
, 							{
								"patchline" : 								{
									"destination" : [ "obj-364", 0 ],
									"order" : 0,
									"source" : [ "obj-352", 4 ]
								}

							}
, 							{
								"patchline" : 								{
									"destination" : [ "obj-365", 3 ],
									"source" : [ "obj-353", 0 ]
								}

							}
, 							{
								"patchline" : 								{
									"destination" : [ "obj-365", 2 ],
									"source" : [ "obj-355", 0 ]
								}

							}
, 							{
								"patchline" : 								{
									"destination" : [ "obj-365", 1 ],
									"source" : [ "obj-358", 0 ]
								}

							}
, 							{
								"patchline" : 								{
									"destination" : [ "obj-365", 0 ],
									"source" : [ "obj-359", 0 ]
								}

							}
, 							{
								"patchline" : 								{
									"destination" : [ "obj-364", 1 ],
									"source" : [ "obj-360", 0 ]
								}

							}
, 							{
								"patchline" : 								{
									"destination" : [ "obj-371", 0 ],
									"source" : [ "obj-362", 0 ]
								}

							}
, 							{
								"patchline" : 								{
									"destination" : [ "obj-372", 0 ],
									"source" : [ "obj-364", 0 ]
								}

							}
, 							{
								"patchline" : 								{
									"destination" : [ "obj-375", 0 ],
									"order" : 1,
									"source" : [ "obj-365", 0 ]
								}

							}
, 							{
								"patchline" : 								{
									"destination" : [ "obj-379", 0 ],
									"order" : 0,
									"source" : [ "obj-365", 0 ]
								}

							}
, 							{
								"patchline" : 								{
									"destination" : [ "obj-360", 0 ],
									"source" : [ "obj-371", 1 ]
								}

							}
, 							{
								"patchline" : 								{
									"destination" : [ "obj-364", 0 ],
									"source" : [ "obj-371", 0 ]
								}

							}
, 							{
								"patchline" : 								{
									"destination" : [ "obj-365", 4 ],
									"source" : [ "obj-372", 0 ]
								}

							}
, 							{
								"patchline" : 								{
									"destination" : [ "obj-377", 0 ],
									"source" : [ "obj-375", 0 ]
								}

							}
, 							{
								"patchline" : 								{
									"destination" : [ "obj-381", 0 ],
									"source" : [ "obj-378", 0 ]
								}

							}
, 							{
								"patchline" : 								{
									"destination" : [ "obj-378", 0 ],
									"source" : [ "obj-379", 1 ]
								}

							}
, 							{
								"patchline" : 								{
									"destination" : [ "obj-387", 0 ],
									"source" : [ "obj-379", 0 ]
								}

							}
, 							{
								"patchline" : 								{
									"destination" : [ "obj-389", 0 ],
									"source" : [ "obj-380", 0 ]
								}

							}
, 							{
								"patchline" : 								{
									"destination" : [ "obj-380", 1 ],
									"order" : 1,
									"source" : [ "obj-381", 0 ]
								}

							}
, 							{
								"patchline" : 								{
									"destination" : [ "obj-384", 0 ],
									"order" : 0,
									"source" : [ "obj-381", 0 ]
								}

							}
, 							{
								"patchline" : 								{
									"destination" : [ "obj-381", 1 ],
									"source" : [ "obj-384", 0 ]
								}

							}
, 							{
								"patchline" : 								{
									"destination" : [ "obj-381", 1 ],
									"order" : 0,
									"source" : [ "obj-387", 0 ]
								}

							}
, 							{
								"patchline" : 								{
									"destination" : [ "obj-398", 0 ],
									"order" : 1,
									"source" : [ "obj-387", 0 ]
								}

							}
, 							{
								"patchline" : 								{
									"destination" : [ "obj-1", 0 ],
									"order" : 0,
									"source" : [ "obj-389", 0 ]
								}

							}
, 							{
								"patchline" : 								{
									"destination" : [ "obj-15", 0 ],
									"order" : 1,
									"source" : [ "obj-389", 0 ]
								}

							}
, 							{
								"patchline" : 								{
									"destination" : [ "obj-380", 0 ],
									"source" : [ "obj-398", 0 ]
								}

							}
, 							{
								"patchline" : 								{
									"destination" : [ "obj-325", 0 ],
									"source" : [ "obj-402", 0 ]
								}

							}
, 							{
								"patchline" : 								{
									"destination" : [ "obj-7", 0 ],
									"source" : [ "obj-6", 0 ]
								}

							}
, 							{
								"patchline" : 								{
									"destination" : [ "obj-352", 0 ],
									"source" : [ "obj-61", 0 ]
								}

							}
 ],
						"bgcolor" : [ 0.56078431372549, 0.56078431372549, 0.56078431372549, 1.0 ],
						"editing_bgcolor" : [ 0.56078431372549, 0.56078431372549, 0.56078431372549, 1.0 ]
					}
,
					"patching_rect" : [ 146.85033581283551, 285.830099403858185, 84.0, 22.0 ],
					"saved_object_attributes" : 					{
						"description" : "",
						"digest" : "",
						"editing_bgcolor" : [ 0.56078431372549, 0.56078431372549, 0.56078431372549, 1.0 ],
						"globalpatchername" : "",
						"locked_bgcolor" : [ 0.56078431372549, 0.56078431372549, 0.56078431372549, 1.0 ],
						"tags" : ""
					}
,
					"text" : "p note-density"
				}

			}
, 			{
				"box" : 				{
					"id" : "obj-41",
					"maxclass" : "comment",
					"numinlets" : 1,
					"numoutlets" : 0,
					"patching_rect" : [ 198.85033581283551, 321.002618253231049, 73.0, 20.0 ],
					"presentation" : 1,
					"presentation_rect" : [ 53.971238100261871, 9.426017552614212, 73.0, 20.0 ],
					"text" : "note density"
				}

			}
, 			{
				"box" : 				{
					"bgcolor" : [ 0.537254901960784, 0.094117647058824, 0.094117647058824, 1.0 ],
					"format" : 6,
					"id" : "obj-39",
					"maxclass" : "flonum",
					"numinlets" : 1,
					"numoutlets" : 2,
					"outlettype" : [ "", "bang" ],
					"parameter_enable" : 0,
					"patching_rect" : [ 146.85033581283551, 320.902618169784546, 50.0, 22.0 ],
					"presentation" : 1,
					"presentation_rect" : [ 70.873479449482147, 31.426017552614212, 50.0, 22.0 ],
					"varname" : "density"
				}

			}
, 			{
				"box" : 				{
					"id" : "obj-69",
					"int" : 1,
					"maxclass" : "gswitch2",
					"numinlets" : 2,
					"numoutlets" : 2,
					"outlettype" : [ "", "" ],
					"parameter_enable" : 0,
					"patching_rect" : [ 126.85033581283551, 228.330099821090698, 39.0, 32.0 ],
					"varname" : "gswitch2[2]"
				}

			}
, 			{
				"box" : 				{
					"id" : "obj-70",
					"maxclass" : "newobj",
					"numinlets" : 2,
					"numoutlets" : 1,
					"outlettype" : [ "int" ],
					"patching_rect" : [ 126.85033581283551, 186.330099821090698, 29.5, 22.0 ],
					"text" : "> 0"
				}

			}
, 			{
				"box" : 				{
					"id" : "obj-127",
					"maxclass" : "newobj",
					"numinlets" : 1,
					"numoutlets" : 2,
					"outlettype" : [ "int", "int" ],
					"patching_rect" : [ 98.85033581283551, 154.330099821090698, 47.0, 22.0 ],
					"text" : "unpack"
				}

			}
 ],
		"lines" : [ 			{
				"patchline" : 				{
					"destination" : [ "obj-10", 1 ],
					"source" : [ "obj-1", 0 ]
				}

			}
, 			{
				"patchline" : 				{
					"destination" : [ "obj-127", 0 ],
					"source" : [ "obj-10", 0 ]
				}

			}
, 			{
				"patchline" : 				{
					"destination" : [ "obj-3", 0 ],
					"source" : [ "obj-11", 0 ]
				}

			}
, 			{
				"patchline" : 				{
					"destination" : [ "obj-69", 1 ],
					"midpoints" : [ 108.35033581283551, 216.330099821090926, 156.35033581283551, 216.330099821090926 ],
					"source" : [ "obj-127", 0 ]
				}

			}
, 			{
				"patchline" : 				{
					"destination" : [ "obj-70", 0 ],
					"source" : [ "obj-127", 1 ]
				}

			}
, 			{
				"patchline" : 				{
					"destination" : [ "obj-5", 1 ],
					"source" : [ "obj-13", 0 ]
				}

			}
, 			{
				"patchline" : 				{
					"destination" : [ "obj-10", 0 ],
					"source" : [ "obj-3", 0 ]
				}

			}
, 			{
				"patchline" : 				{
					"destination" : [ "obj-5", 0 ],
					"order" : 0,
					"source" : [ "obj-39", 0 ]
				}

			}
, 			{
				"patchline" : 				{
					"destination" : [ "obj-9", 0 ],
					"order" : 1,
					"source" : [ "obj-39", 0 ]
				}

			}
, 			{
				"patchline" : 				{
					"destination" : [ "obj-39", 0 ],
					"source" : [ "obj-404", 0 ]
				}

			}
, 			{
				"patchline" : 				{
					"destination" : [ "obj-7", 0 ],
					"source" : [ "obj-5", 0 ]
				}

			}
, 			{
				"patchline" : 				{
					"destination" : [ "obj-404", 0 ],
					"source" : [ "obj-69", 1 ]
				}

			}
, 			{
				"patchline" : 				{
					"destination" : [ "obj-69", 0 ],
					"source" : [ "obj-70", 0 ]
				}

			}
 ],
		"parameters" : 		{
			"obj-13" : [ "number", "number", 0 ],
			"parameterbanks" : 			{
				"0" : 				{
					"index" : 0,
					"name" : "",
					"parameters" : [ "-", "-", "-", "-", "-", "-", "-", "-" ]
				}

			}
,
			"inherited_shortname" : 1
		}
,
		"dependency_cache" : [  ],
		"autosave" : 0
	}

}
